# xmcd CD database file
#
# Track frame offsets:
#	150
#	11692
#	19275
#	24675
#	32700
#	42150
#	50250
#	59900
#	79575
#	89350
#	99752
#	104925
#	113670
#
# Disc length: 1621 seconds
#
# Revision: 3
# Processed by: cddbd v1.4PL0 Copyright (c) Steve Scherf et al.
# Submitted via: CDex 1.50beta10
#
DISCID=a506530d
DTITLE=海岸聲音 - 台灣海聲實錄
DYEAR=1900
DGENRE=New Age
TTITLE0=和平島
TTITLE1=三貂角
TTITLE2=龜山島+棕耳鵯
TTITLE3=豐濱
TTITLE4=石梯坪
TTITLE5=都蘭
TTITLE6=三仙台+灰頭?鶯
TTITLE7=蘭嶼
TTITLE8=九棚
TTITLE9=貓鼻頭+台灣畫眉
TTITLE10=白砂
TTITLE11=枋山
TTITLE12=四草+白頭翁
EXTD=
EXTT0=
EXTT1=
EXTT2=
EXTT3=
EXTT4=
EXTT5=
EXTT6=
EXTT7=
EXTT8=
EXTT9=
EXTT10=
EXTT11=
EXTT12=
PLAYORDER=
